<svg width="14" height="16" viewBox="0 0 14 16" fill="none" xmlns="http://www.w3.org/2000/svg">
<path fill-rule="evenodd" clip-rule="evenodd" d="M8.6665 2.33337H5.33317V1.33337H8.6665V2.33337ZM4.6665 5.16671C4.39984 5.16671 4.1665 5.40004 4.1665 5.66671V12.3334C4.1665 12.6 4.39984 12.8334 4.6665 12.8334C4.93317 12.8334 5.1665 12.6 5.1665 12.3334V5.66671C5.1665 5.40004 4.93317 5.16671 4.6665 5.16671ZM9.33317 5.16671C9.0665 5.16671 8.83317 5.40004 8.83317 5.66671V12.3334C8.83317 12.6 9.0665 12.8334 9.33317 12.8334C9.59984 12.8334 9.83317 12.6 9.83317 12.3334V5.66671C9.83317 5.40004 9.59984 5.16671 9.33317 5.16671ZM6.99984 5.16671C6.73317 5.16671 6.49984 5.40004 6.49984 5.66671V12.3334C6.49984 12.6 6.73317 12.8334 6.99984 12.8334C7.2665 12.8334 7.49984 12.6 7.49984 12.3334V5.66671C7.49984 5.40004 7.2665 5.16671 6.99984 5.16671ZM11.0665 13.7334C11.0332 14.2667 10.5998 14.6667 10.0665 14.6667H3.93317C3.39984 14.6667 2.9665 14.2667 2.93317 13.7334L2.3665 3.33337H11.6332L11.0665 13.7334ZM4.33317 0.333374V2.33337H0.666504C0.399837 2.33337 0.166504 2.56671 0.166504 2.83337C0.166504 3.10004 0.399837 3.33337 0.666504 3.33337H1.3665L1.93317 13.7667C1.99984 14.8334 2.8665 15.6667 3.93317 15.6667H10.0998C11.1665 15.6667 12.0332 14.8334 12.0998 13.7667L12.6332 3.33337H13.3332C13.5998 3.33337 13.8332 3.10004 13.8332 2.83337C13.8332 2.56671 13.5998 2.33337 13.3332 2.33337H9.6665V0.333374H4.33317Z" fill="black"/>
</svg>
