<svg width="24" height="24" viewBox="0 0 24 24" fill="none" xmlns="http://www.w3.org/2000/svg">
<path fill-rule="evenodd" clip-rule="evenodd" d="M4.5 2.5H19.5V17H16.5C15.6716 17 15 17.6716 15 18.5V21.5H6C5.17157 21.5 4.5 20.8284 4.5 20V2.5ZM21 2.5V17V18V18.0137L16.0208 23H16H15H6C4.34315 23 3 21.6569 3 20V2.5V1H4.5H19.5H21V2.5ZM10.5493 7.157H9.40385L8.53385 8.80275H8.49035L7.62035 7.157H6.47485L7.8451 9.5785L6.47485 12H7.62035L8.49035 10.3615H8.53385L9.40385 12H10.5493L9.17185 9.5785L10.5493 7.157ZM11.0443 12H13.7558V11.0938H12.023V7.157H11.0443V12ZM14.0192 10.6298C14.1062 11.5868 14.708 12.116 15.7085 12.116C16.6147 12.116 17.3325 11.565 17.3325 10.5935C17.3325 9.89025 16.8902 9.35375 16.1652 9.16525L15.607 9.013C15.3387 8.9405 15.114 8.81725 15.114 8.491C15.114 8.16475 15.3677 7.96175 15.7012 7.96175C16.0782 7.96175 16.2885 8.143 16.3465 8.5055H17.3035C17.2092 7.61375 16.68 7.041 15.7012 7.041C14.8022 7.041 14.1135 7.6355 14.1135 8.55625C14.1135 9.15075 14.4252 9.709 15.1937 9.91925L15.752 10.0787C16.129 10.1803 16.332 10.3325 16.332 10.6515C16.332 10.9633 16.1217 11.1952 15.7085 11.1952C15.346 11.1952 15.0777 11.0358 14.998 10.6298H14.0192Z" fill="black"/>
</svg>
