<svg width="15" height="14" viewBox="0 0 15 14" fill="none" xmlns="http://www.w3.org/2000/svg">
<path fill-rule="evenodd" clip-rule="evenodd" d="M6.3105 3.33327C5.95634 3.56994 5.62879 3.84202 5.33384 4.14663L5.16084 4.33327H1.6665V11.9999C1.6665 12.5188 2.06394 12.9468 2.57035 12.9954L2.6665 12.9999H10.6665C11.1854 12.9999 11.6134 12.6025 11.6619 12.0961L11.6665 11.9999V6.88294L12.6665 6.22827V11.9999C12.6665 13.0652 11.834 13.9357 10.784 13.9965L10.6665 13.9999H2.6665C1.60129 13.9999 0.730723 13.1674 0.669899 12.1175L0.666504 11.9999V3.33327H6.3105ZM9.99984 0.887939L14.4998 3.83327L9.99984 6.77861V4.33327H9.5915C7.47636 4.33327 5.74674 6.01482 5.66922 8.11135L5.6665 8.25827V9.80561C5.6665 10.0819 5.4425 10.3056 5.1665 10.3056C4.9135 10.3056 4.7042 10.1177 4.67107 9.87349L4.6665 9.80561V8.25827C4.6665 5.59692 6.78835 3.42185 9.42918 3.33591L9.5915 3.33327H9.99984V0.887939Z" fill="black"/>
</svg>
